<?xml version="1.0" encoding="utf-8"?>
<!-- Generator: Adobe Illustrator 18.0.0, SVG Export Plug-In . SVG Version: 6.00 Build 0)  -->
<!DOCTYPE svg PUBLIC "-//W3C//DTD SVG 1.1//EN" "http://www.w3.org/Graphics/SVG/1.1/DTD/svg11.dtd">
<svg version="1.1" id="Layer_1" xmlns="http://www.w3.org/2000/svg" xmlns:xlink="http://www.w3.org/1999/xlink" x="0px" y="0px"
	 viewBox="0 0 1190.6 841.9" enable-background="new 0 0 1190.6 841.9" xml:space="preserve">
<rect y="0" fill="#001B72" width="1190.6" height="841.9"/>
<text transform="matrix(1 0 0 1 1022.4847 -419.2052)" fill="#FFFFFF" font-family="'JCHEadA'" font-size="244.4409">떡</text>
<g>
	<g>
		<circle fill="#FF1212" cx="473.7" cy="585.3" r="166.6"/>
		<g>
			<path fill="#FFFFFF" d="M430.6,570.4h12.3v37.9h-25c-13.6,0-22.4-2.9-26.6-8.5c-2.9-4-4.5-12.1-4.5-24.1v-93h55.8v37.9h-12.3
				v49.8L430.6,570.4L430.6,570.4z M400,616.6h160.3v87.3h-43.6v-49.8H400V616.6z M445.3,608.1V482.6h63.2v37.9h-19.9v49.8h25v37.9
				h-68.2V608.1z M498.7,559.2v-33.7h18.1v-47.8h43.6v133.1h-43.6v-51.6H498.7z"/>
		</g>
	</g>
	<text transform="matrix(1 0 0 1 640.2823 662.8419)" fill="#FFFFFF" font-family="'JCHEadA'" font-size="269.9872">집</text>
</g>
<g>
	<text transform="matrix(1 0 0 1 230.6338 317.064)" fill="#FFFFFF" font-family="'JCHEadA'" font-size="269.9872">소문난</text>
</g>
</svg>
